<?xml version="1.0" encoding="iso-8859-1"?>
<!-- Generator: Adobe Illustrator 19.0.0, SVG Export Plug-In . SVG Version: 6.00 Build 0)  -->
<svg version="1.1" id="Layer_1" xmlns="http://www.w3.org/2000/svg" xmlns:xlink="http://www.w3.org/1999/xlink" x="0px" y="0px"
	 viewBox="0 0 473.677 473.677" style="enable-background:new 0 0 473.677 473.677;" xml:space="preserve">
<circle style="fill:#A2D4DE;" cx="236.846" cy="236.838" r="236.827"/>
<path style="fill:#65A844;" d="M0,236.831h473.677c0,130.799-106.036,236.835-236.842,236.835C106.036,473.666,0,367.626,0,236.831z
	"/>
<g>
	<path style="fill:#FFFFFF;" d="M108.287,150.832H358.76c16.6,0,30.055,13.455,30.055,30.051v169.305h16.492V166.665
		c0-18.429-14.943-33.368-33.372-33.368H93.863c-18.429,0-33.372,14.94-33.372,33.368v183.527h17.741V180.887
		C78.232,164.287,91.694,150.832,108.287,150.832z"/>
	<polygon style="fill:#FFFFFF;" points="156.823,267.795 313.619,267.795 389.536,348.943 399.865,348.943 321.873,256.707 
		147.792,256.707 66.576,347.702 77.682,347.702 	"/>
	
		<rect x="55.04" y="203.472" transform="matrix(-0.5073 -0.8618 0.8618 -0.5073 0.4422 410.9364)" style="fill:#FFFFFF;" width="125.298" height="3.739"/>
	
		<rect x="289.272" y="203.461" transform="matrix(0.5073 -0.8618 0.8618 0.5073 -3.5629 404.4286)" style="fill:#FFFFFF;" width="125.298" height="3.739"/>
	<rect x="231.27" y="143.891" style="fill:#FFFFFF;" width="3.74" height="117.797"/>
	
		<rect x="258.831" y="143.894" transform="matrix(-0.999 -0.0449 0.0449 -0.999 512.034 417.091)" style="fill:#FFFFFF;" width="3.74" height="117.801"/>
	
		<rect x="283.625" y="143.882" transform="matrix(-0.9973 -0.0733 0.0733 -0.9973 555.3548 425.9404)" style="fill:#FFFFFF;" width="3.736" height="117.795"/>
	
		<rect x="315.862" y="143.891" transform="matrix(-0.96 -0.28 0.28 -0.96 565.9733 486.4322)" style="fill:#FFFFFF;" width="3.74" height="117.797"/>
	
		<rect x="207.12" y="143.91" transform="matrix(0.999 -0.045 0.045 0.999 -8.9147 9.6098)" style="fill:#FFFFFF;" width="3.736" height="117.802"/>
	
		<rect x="182.364" y="143.899" transform="matrix(0.9973 -0.0732 0.0732 0.9973 -14.3506 14.0302)" style="fill:#FFFFFF;" width="3.74" height="117.795"/>
	
		<rect x="150.132" y="143.911" transform="matrix(0.9598 -0.2805 0.2805 0.9598 -50.7867 50.7807)" style="fill:#FFFFFF;" width="3.736" height="117.787"/>
	<rect x="98.048" y="170.536" style="fill:#FFFFFF;" width="274.373" height="3.74"/>
	<rect x="111.604" y="193.441" style="fill:#FFFFFF;" width="247.261" height="3.74"/>
	<rect x="123.761" y="214.924" style="fill:#FFFFFF;" width="222.953" height="3.74"/>
	<rect x="136.693" y="235.043" style="fill:#FFFFFF;" width="197.102" height="3.74"/>
	
		<rect x="316.13" y="271.079" transform="matrix(-0.6508 -0.7593 0.7593 -0.6508 392.8797 726.5978)" style="fill:#FFFFFF;" width="94.817" height="3.736"/>
	
		<rect x="334.162" y="242.034" transform="matrix(-0.6809 -0.7323 0.7323 -0.6809 444.2379 681.35)" style="fill:#FFFFFF;" width="72.761" height="3.739"/>
	
		<rect x="352.474" y="208.141" transform="matrix(-0.7395 -0.6731 0.6731 -0.7395 514.6556 619.1713)" style="fill:#FFFFFF;" width="49.301" height="3.739"/>
	
		<rect x="368.139" y="177.304" transform="matrix(-0.8459 -0.5333 0.5333 -0.8459 607.4577 533.8502)" style="fill:#FFFFFF;" width="25.417" height="3.739"/>
	
		<rect x="362.407" y="164.966" transform="matrix(-0.8445 -0.5356 0.5356 -0.8445 551.5245 609.6489)" style="fill:#FFFFFF;" width="3.736" height="119.568"/>
	
		<rect x="370.56" y="195.061" transform="matrix(-0.8464 -0.5325 0.5325 -0.8464 555.2869 657.3872)" style="fill:#FFFFFF;" width="3.74" height="107.134"/>
	
		<rect x="375.448" y="244.089" transform="matrix(-0.8473 -0.5311 0.5311 -0.8473 548.4782 717.067)" style="fill:#FFFFFF;" width="3.74" height="71.201"/>
	
		<rect x="383.882" y="282.099" transform="matrix(-0.8336 -0.5524 0.5524 -0.8336 538.5999 773.0146)" style="fill:#FFFFFF;" width="3.739" height="46.54"/>
	
		<rect x="59.029" y="271.036" transform="matrix(0.6508 -0.7593 0.7593 0.6508 -170.0385 176.1203)" style="fill:#FFFFFF;" width="94.817" height="3.74"/>
	
		<rect x="63.077" y="242.051" transform="matrix(0.6809 -0.7323 0.7323 0.6809 -146.9 150.6624)" style="fill:#FFFFFF;" width="72.761" height="3.739"/>
	
		<rect x="68.265" y="208.146" transform="matrix(0.7395 -0.6731 0.6731 0.7395 -117.1652 117.247)" style="fill:#FFFFFF;" width="49.301" height="3.739"/>
	
		<rect x="76.456" y="177.315" transform="matrix(0.8459 -0.5333 0.5333 0.8459 -81.8229 75.1615)" style="fill:#FFFFFF;" width="25.417" height="3.739"/>
	
		<rect x="103.921" y="165.003" transform="matrix(0.845 -0.5347 0.5347 0.845 -103.8015 91.4029)" style="fill:#FFFFFF;" width="3.739" height="119.561"/>
	
		<rect x="95.733" y="195.056" transform="matrix(0.8459 -0.5333 0.5333 0.8459 -117.5527 90.36)" style="fill:#FFFFFF;" width="3.739" height="107.125"/>
	
		<rect x="90.798" y="244.062" transform="matrix(0.8468 -0.5319 0.5319 0.8468 -134.5573 92.1323)" style="fill:#FFFFFF;" width="3.736" height="71.201"/>
	
		<rect x="82.405" y="282.143" transform="matrix(0.8336 -0.5524 0.5524 0.8336 -154.6939 97.3909)" style="fill:#FFFFFF;" width="3.739" height="46.54"/>
</g>
<g>
</g>
<g>
</g>
<g>
</g>
<g>
</g>
<g>
</g>
<g>
</g>
<g>
</g>
<g>
</g>
<g>
</g>
<g>
</g>
<g>
</g>
<g>
</g>
<g>
</g>
<g>
</g>
<g>
</g>
</svg>
